# Blender v2.79 (sub 0) OBJ File: ''
# www.blender.org
mtllib sign.mtl
o sign
v 0.061161 0.277684 0.083466
v 0.015012 0.227372 0.046201
v 0.098281 0.277685 -0.032374
v 0.026860 0.223125 -0.019515
v -0.039301 0.227372 -0.028553
v 0.121055 0.344640 0.000000
v -0.000419 0.277684 -0.103474
v 0.037408 0.344641 -0.115130
v 0.076709 0.374664 0.086576
v -0.076709 0.302188 -0.086576
v -0.098280 0.399168 0.032375
v -0.058635 0.374664 0.099708
v -0.053892 0.442954 0.014422
v -0.061161 0.399168 -0.083465
v 0.060481 0.399168 -0.083960
v 0.010259 0.444482 -0.031577
v 0.088281 0.419685 0.000000
v 0.027280 0.419687 0.083960
v -0.121055 0.332211 0.000000
v -0.017020 0.310886 0.115536
v -0.098540 0.277684 0.031576
v 0.080725 0.315297 -0.030646
v 0.077017 -6.185002 -0.034171
v 0.030646 -6.185002 -0.080726
v 0.080725 -6.185002 0.030645
v 0.030646 0.315297 0.080725
v 0.034170 -6.185002 0.077016
v -0.055634 -6.185002 0.072371
v -0.072372 0.315297 0.055634
v -0.080725 -6.185002 -0.030647
v -0.030646 0.315297 -0.080725
v -0.034170 -6.185002 -0.077018
v 0.034170 0.315297 -0.077017
v 0.077017 0.315297 0.034170
v -0.077017 0.315297 -0.034170
v 0.076743 -0.576552 -1.000000
v 0.139434 -0.576552 1.000000
v 0.139434 -0.576552 -1.000000
v 0.076743 -1.052350 1.000000
v 0.139434 -1.052350 1.000000
v 0.076743 -0.576552 1.000000
v 0.076743 -1.052350 -1.000000
v 0.139434 -1.052350 -1.000000
v -0.347868 -0.043213 -0.946345
v -0.291028 -0.043213 -0.972790
v 0.495795 -0.519010 0.867004
v 0.495795 -0.043213 0.867004
v -0.347868 -0.519010 -0.946345
v 0.552635 -0.519010 0.840559
v -0.291028 -0.519010 -0.972790
v 0.552635 -0.043213 0.840559
v -0.863366 -1.111725 -0.507681
v 0.958944 -1.111725 0.318827
v -0.835696 -1.111725 -0.563935
v 0.931274 -1.587522 0.375081
v 0.958944 -1.587522 0.318827
v 0.931274 -1.111725 0.375081
v -0.863366 -1.587522 -0.507681
v -0.835696 -1.587522 -0.563935
v -0.355825 -1.650299 -0.950899
v -0.298985 -1.650299 -0.977343
v 0.487839 -2.126096 0.862450
v 0.544679 -2.126096 0.836005
v 0.487839 -1.650299 0.862450
v -0.355825 -2.126096 -0.950899
v -0.298985 -2.126096 -0.977343
v 0.544679 -1.650299 0.836005
vt 0.209215 0.122901
vt 0.115695 0.110478
vt 0.209215 0.098223
vt 0.022175 0.030275
vt 0.115695 0.024105
vt 0.115695 0.036444
vt 0.302734 0.104309
vt 0.209215 0.073545
vt 0.302734 0.079631
vt 0.349494 0.119733
vt 0.255975 0.058038
vt 0.396254 0.153665
vt 0.349494 0.144411
vt 0.489774 0.147495
vt 0.396254 0.061206
vt 0.396254 0.036528
vt 0.489774 0.042614
vt 0.396254 0.085884
vt 0.535899 0.070419
vt 0.443647 0.101182
vt 0.535899 0.088843
vt 0.489774 0.061122
vt 0.443647 0.132113
vt 0.583294 0.141326
vt 0.443647 0.125860
vt 0.443647 0.107435
vt 0.583294 0.116648
vt 0.302734 0.042614
vt 0.256609 0.138199
vt 0.209215 0.036361
vt 0.302734 0.024106
vt 0.209215 0.017936
vt 0.069569 0.082757
vt 0.115695 0.073461
vt 0.115695 0.054953
vt 0.069569 0.101182
vt 0.115695 0.128987
vt 0.223969 0.255041
vt 0.695363 0.217507
vt 0.223970 0.217507
vt 0.650220 0.249252
vt 0.259775 0.218550
vt 0.259775 0.249252
vt 0.611006 0.023024
vt 0.007391 0.148085
vt 0.611006 0.148085
vt 0.756859 0.364879
vt 0.211819 0.336324
vt 0.756858 0.336324
vt 0.993059 0.994903
vt 0.010890 0.805835
vt 0.993059 0.805835
vt 0.214263 0.257970
vt 0.704075 0.217446
vt 0.704074 0.257970
vt 0.695362 0.255041
vt 0.650220 0.218550
vt 0.007391 0.023024
vt 0.211820 0.364879
vt 0.010890 0.989043
vt 0.214263 0.217446
vt 0.223969 0.255041
vt 0.695363 0.217507
vt 0.223970 0.217507
vt 0.650220 0.249252
vt 0.259775 0.218550
vt 0.259775 0.249252
vt 0.007391 0.148085
vt 0.611006 0.023024
vt 0.007391 0.023024
vt 0.756859 0.364879
vt 0.211819 0.336324
vt 0.756858 0.336324
vt 0.991106 0.791778
vt 0.008937 0.602710
vt 0.991106 0.602710
vt 0.214263 0.257970
vt 0.704075 0.217446
vt 0.704074 0.257970
vt 0.695362 0.255041
vt 0.650220 0.218550
vt 0.611006 0.148085
vt 0.211820 0.364879
vt 0.008937 0.785918
vt 0.214263 0.217446
vt 0.223969 0.255041
vt 0.695363 0.217507
vt 0.223970 0.217507
vt 0.650220 0.249252
vt 0.259775 0.218550
vt 0.259775 0.249252
vt 0.611006 0.148085
vt 0.007391 0.023024
vt 0.611006 0.023024
vt 0.756859 0.364879
vt 0.211819 0.336324
vt 0.756858 0.336324
vt 0.991106 0.587677
vt 0.008937 0.398608
vt 0.991106 0.398608
vt 0.214263 0.257970
vt 0.704075 0.217446
vt 0.704074 0.257970
vt 0.695362 0.255041
vt 0.650220 0.218550
vt 0.007391 0.148085
vt 0.211820 0.364879
vt 0.008937 0.581816
vt 0.214263 0.217446
vt 0.223969 0.255041
vt 0.695363 0.217507
vt 0.223970 0.217507
vt 0.650220 0.249252
vt 0.259775 0.218550
vt 0.259775 0.249252
vt 0.007758 0.021281
vt 0.610639 0.149829
vt 0.007035 0.146340
vt 0.756859 0.364879
vt 0.211819 0.336324
vt 0.756858 0.336324
vt 0.991106 0.385749
vt 0.008937 0.196681
vt 0.991106 0.196681
vt 0.214263 0.257970
vt 0.704075 0.217446
vt 0.704074 0.257970
vt 0.695362 0.255041
vt 0.650220 0.218550
vt 0.611362 0.024770
vt 0.211820 0.364879
vt 0.008937 0.379889
vt 0.214263 0.217446
vt 0.992830 0.044595
vt 0.620451 0.043575
vt 0.620451 0.028312
vt 0.620451 0.058697
vt 0.992830 0.074980
vt 0.620451 0.073961
vt 0.620451 0.094553
vt 0.992830 0.099895
vt 0.620451 0.119467
vt 0.992830 0.135751
vt 0.620451 0.134731
vt 0.620451 0.142802
vt 0.992830 0.021261
vt 0.992830 0.029332
vt 0.992830 0.059717
vt 0.992830 0.120487
vt 0.466792 0.153872
vt 0.346128 0.466792
vt 0.033208 0.346128
vt 0.718781 0.139225
vt 0.765869 0.139007
vt 0.801334 0.107391
vt 0.076988 0.119453
vt 0.332363 0.034033
vt 0.465967 0.332363
vt 0.167637 0.465967
vt 0.801116 0.060302
vt 0.769501 0.024838
vt 0.709700 0.036388
vt 0.687165 0.103760
vn 0.5562 -0.4907 0.6708
vn 0.0969 -0.8981 0.4290
vn 0.8123 -0.5039 -0.2935
vn 0.3097 -0.9288 -0.2035
vn -0.3879 -0.8935 -0.2264
vn 0.9996 0.0196 -0.0203
vn 0.0372 -0.5096 -0.8596
vn 0.3199 0.0382 -0.9467
vn 0.6382 0.2502 0.7281
vn -0.6505 -0.2707 -0.7096
vn -0.8359 0.4919 0.2435
vn -0.4899 0.2896 0.8222
vn -0.3891 0.9156 0.1013
vn -0.4986 0.5193 -0.6941
vn 0.5096 0.5141 -0.6900
vn 0.0817 0.9618 -0.2614
vn 0.6902 0.7236 -0.0005
vn 0.1736 0.7214 0.6704
vn -0.9993 -0.0276 -0.0254
vn -0.1602 -0.2597 0.9523
vn -0.7812 -0.5370 0.3183
vn 0.0000 1.0000 0.0000
vn 0.0000 -0.0000 1.0000
vn -1.0000 0.0000 0.0000
vn 0.0000 -1.0000 -0.0000
vn 1.0000 0.0000 0.0000
vn 0.0000 0.0000 -1.0000
vn 0.4218 -0.0000 0.9067
vn -0.9067 -0.0000 0.4218
vn 0.9067 0.0000 -0.4218
vn -0.4218 0.0000 -0.9067
vn 0.8973 -0.0000 0.4414
vn -0.4414 -0.0000 0.8973
vn 0.4414 0.0000 -0.8973
vn -0.8973 -0.0000 -0.4414
vn 0.7287 0.6256 -0.2787
vn 0.7050 -0.6353 -0.3152
vn 0.2787 -0.6256 -0.7287
vn 0.7287 -0.6256 0.2787
vn 0.2146 0.6119 0.7612
vn 0.2790 -0.6263 0.7279
vn -0.5126 -0.5948 0.6193
vn -0.6193 0.5948 0.5126
vn -0.7612 -0.6119 -0.2146
vn -0.2787 0.6256 -0.7287
vn -0.3152 -0.6353 -0.7050
vn 0.3152 0.6353 -0.7050
vn 0.7050 0.6353 0.3152
vn -0.7279 0.6263 -0.2790
usemtl Material.002
s 1
f 1/1/1 2/2/2 3/3/3
f 4/4/4 2/5/2 5/6/5
f 1/1/1 3/3/3 6/7/6
f 3/3/3 7/8/7 8/9/8
f 1/1/1 6/7/6 9/10/9
f 7/8/7 10/11/10 8/9/8
f 3/3/3 8/9/8 6/7/6
f 11/12/11 12/13/12 13/14/13
f 14/15/14 11/16/11 13/17/13
f 15/18/15 14/15/14 16/19/16
f 17/20/17 15/18/15 16/21/16
f 16/19/16 14/15/14 13/22/13
f 13/14/13 18/23/18 16/24/16
f 13/14/13 12/13/12 18/23/18
f 18/25/18 17/26/17 16/27/16
f 18/25/18 9/10/9 17/26/17
f 6/7/6 15/18/15 17/26/17
f 6/7/6 8/9/8 15/18/15
f 8/9/8 14/15/14 15/18/15
f 8/9/8 10/11/10 14/15/14
f 19/28/19 11/16/11 14/15/14
f 20/29/20 18/23/18 12/13/12
f 6/7/6 17/26/17 9/10/9
f 10/11/10 19/28/19 14/15/14
f 10/11/10 21/30/21 19/28/19
f 19/28/19 12/31/12 11/16/11
f 19/28/19 21/30/21 12/31/12
f 21/30/21 20/32/20 12/31/12
f 20/29/20 9/10/9 18/23/18
f 20/29/20 1/1/1 9/10/9
f 4/33/4 7/8/7 3/3/3
f 4/33/4 5/34/5 7/8/7
f 5/35/5 10/11/10 7/8/7
f 5/35/5 21/30/21 10/11/10
f 5/6/5 2/5/2 21/30/21
f 2/5/2 20/32/20 21/30/21
f 3/3/3 2/2/2 4/36/4
f 2/37/2 1/1/1 20/29/20
usemtl Material.001
f 36/38/22 37/39/22 38/40/22
f 37/41/23 39/42/23 40/43/23
f 41/44/24 42/45/24 39/46/24
f 43/47/25 39/48/25 42/49/25
f 38/50/26 40/51/26 43/52/26
f 36/53/27 43/54/27 42/55/27
f 36/38/22 41/56/22 37/39/22
f 37/41/23 41/57/23 39/42/23
f 41/44/24 36/58/24 42/45/24
f 43/47/25 40/59/25 39/48/25
f 38/50/26 37/60/26 40/51/26
f 36/53/27 38/61/27 43/54/27
f 44/62/22 51/63/22 45/64/22
f 51/65/28 46/66/28 49/67/28
f 47/68/29 48/69/29 46/70/29
f 50/71/25 46/72/25 48/73/25
f 45/74/30 49/75/30 50/76/30
f 44/77/31 50/78/31 48/79/31
f 44/62/22 47/80/22 51/63/22
f 51/65/28 47/81/28 46/66/28
f 47/68/29 44/82/29 48/69/29
f 50/71/25 49/83/25 46/72/25
f 45/74/30 51/84/30 49/75/30
f 44/77/31 45/85/31 50/78/31
f 52/86/22 53/87/22 54/88/22
f 53/89/32 55/90/32 56/91/32
f 57/92/33 58/93/33 55/94/33
f 59/95/25 55/96/25 58/97/25
f 54/98/34 56/99/34 59/100/34
f 52/101/35 59/102/35 58/103/35
f 52/86/22 57/104/22 53/87/22
f 53/89/32 57/105/32 55/90/32
f 57/92/33 52/106/33 58/93/33
f 59/95/25 56/107/25 55/96/25
f 54/98/34 53/108/34 56/99/34
f 52/101/35 54/109/35 59/102/35
f 60/110/22 67/111/22 61/112/22
f 67/113/28 62/114/28 63/115/28
f 64/116/29 65/117/29 62/118/29
f 66/119/25 62/120/25 65/121/25
f 61/122/30 63/123/30 66/124/30
f 60/125/31 66/126/31 65/127/31
f 60/110/22 64/128/22 67/111/22
f 67/113/28 64/129/28 62/114/28
f 64/116/29 60/130/29 65/117/29
f 66/119/25 63/131/25 62/120/25
f 61/122/30 67/132/30 63/123/30
f 60/125/31 61/133/31 66/126/31
usemtl Material.003
f 22/134/36 23/135/37 24/136/38
f 22/134/36 25/137/39 23/135/37
f 26/138/40 27/139/41 25/137/39
f 26/138/40 28/140/42 27/139/41
f 29/141/43 30/142/44 28/140/42
f 31/143/45 32/144/46 30/142/44
f 31/143/45 24/145/38 32/144/46
f 31/146/45 33/147/47 24/136/38
f 33/147/47 22/134/36 24/136/38
f 22/134/36 34/148/48 25/137/39
f 34/148/48 26/138/40 25/137/39
f 26/138/40 29/141/43 28/140/42
f 29/141/43 35/149/49 30/142/44
f 35/149/49 31/143/45 30/142/44
f 34/150/48 33/151/47 35/152/49
f 32/153/46 24/154/38 23/155/37
f 35/152/49 29/156/43 26/157/40
f 26/157/40 34/150/48 35/152/49
f 34/150/48 22/158/36 33/151/47
f 35/152/49 33/151/47 31/159/45
f 25/160/39 27/161/41 23/155/37
f 27/161/41 28/162/42 30/163/44
f 23/155/37 27/161/41 32/153/46
f 30/163/44 32/153/46 27/161/41
